<svg width="20.000000" height="20.000000" viewBox="0 0 20 20" fill="none" xmlns="http://www.w3.org/2000/svg" xmlns:xlink="http://www.w3.org/1999/xlink">
	<desc>
			Created with Pixso.
	</desc>
	<defs/>
	<path id="Vector 2186" d="M6.29 0.66C6.9 0.66 7.43 1.08 7.58 1.67L8.36 4.8C8.53 5.47 8.15 6.16 7.49 6.39L6.01 6.88C5.24 7.14 4.78 7.93 4.94 8.72C5.58 11.92 8.07 14.41 11.27 15.05C12.06 15.21 12.85 14.75 13.11 13.98L13.51 12.79C13.77 12.02 14.64 11.65 15.37 12.02L18.59 13.63C19.04 13.85 19.33 14.31 19.33 14.82L19.33 16.66C19.33 18.13 18.13 19.33 16.66 19.33L13.99 19.33C6.63 19.33 0.66 13.36 0.66 5.99L0.66 3.33C0.66 1.86 1.86 0.66 3.33 0.66L6.29 0.66Z" stroke="#000000" stroke-opacity="1.000000" stroke-width="1.000000"/>
</svg>
