<svg width="30.000000" height="30.000000" viewBox="0 0 30 30" fill="none" xmlns="http://www.w3.org/2000/svg" xmlns:xlink="http://www.w3.org/1999/xlink">
	<desc>
			Created with Pixso.
	</desc>
	<defs/>
	<path id="Vector" d="M21 1C25.41 1 29 4.58 29 9L29 21C29 25.41 25.41 29 21 29L9 29C4.58 29 1 25.41 1 21L1 9C1 4.58 4.58 1 9 1L21 1ZM9 15C9 11.68 11.68 9 15 9C18.31 9 21 11.68 21 15C21 18.31 18.31 21 15 21C11.68 21 9 18.31 9 15ZM22 7L24 7" stroke="#000000" stroke-opacity="1.000000" stroke-width="2.000000"/>
</svg>
